<svg height="447pt" viewBox="0 -100 447.52098 447" width="447pt" xmlns="http://www.w3.org/2000/svg"><path d="m398.398438 136.78125c-4.289063-.511719-7.394532-4.332031-7.023438-8.632812.222656-2.574219.285156-5.144532.285156-7.789063.046875-54.097656-36.113281-101.535156-88.285156-115.832031-52.175781-14.296875-107.464844 8.082031-135 54.644531-2.035156 3.417969-6.273438 4.824219-9.945312 3.296875-24.699219-10.246094-52.882813-7.488281-75.125 7.347656-22.246094 14.839844-35.617188 39.800782-35.644532 66.542969 0 2.65625.152344 5.300781.371094 7.878906.367188 4.253907-2.671875 8.046875-6.90625 8.617188-24.847656 3.59375-42.726562 25.730469-41.011719 50.78125 1.714844 25.046875 22.441407 44.542969 47.546875 44.722656h344c29.566406-.074219 53.976563-23.117187 55.757813-52.625 1.78125-29.511719-19.679688-55.324219-49.019531-58.953125zm0 0"/></svg>